<svg id="Layer_1" data-name="Layer 1" xmlns="http://www.w3.org/2000/svg" viewBox="0 0 108 108"><defs><style>.cls-1{fill:#00aeef;}.cls-2{fill:none;stroke:#1c1b1a;stroke-linecap:round;stroke-linejoin:round;stroke-width:3px;}</style></defs><title>Artboard 4</title><path class="cls-1" d="M34.68,64.52a34.24,34.24,0,0,0-1.14,7.38v8.33A23.73,23.73,0,0,1,58,89.64a23.73,23.73,0,0,1,24.46-9.41V71.9a24.69,24.69,0,0,0-.94-6.76s-3-9.64-11.27-14.76-31.5,5.51-31.5,5.51A26.4,26.4,0,0,0,34.68,64.52Z"/><polygon class="cls-1" points="101.25 50.79 58 67.63 14.75 50.79 58 36.34 101.25 50.79"/><path class="cls-2" d="M30.67,61.51a24.65,24.65,0,0,0-1.13,7.38v8.33A23.81,23.81,0,0,1,54,86.64a23.81,23.81,0,0,1,24.46-9.42V68.89a24.62,24.62,0,0,0-.94-6.75"/><polyline class="cls-2" points="54 47.99 84.63 52.11 84.63 80.74"/><polyline class="cls-2" points="78.46 55.21 54 64.74 10.75 47.9 54 33.45 97.25 47.9 89.79 50.8"/></svg>